Coordinates
version=1
nRows=9
nColumns=24
inDegrees=yes

Units are S.I. units (second, meters, Newtons, ...)
Angles are in degrees.

endheader
time	pelvis_tilt	pelvis_list	pelvis_rotation	pelvis_tx	pelvis_ty	pelvis_tz	hip_flexion_r	hip_adduction_r	hip_rotation_r	knee_angle_r	ankle_angle_r	subtalar_angle_r	mtp_angle_r	hip_flexion_l	hip_adduction_l	hip_rotation_l	knee_angle_l	ankle_angle_l	subtalar_angle_l	mtp_angle_l	lumbar_extension	lumbar_bending	lumbar_rotation
      0.01000000	     50.21956805	      2.51288511	     -1.81819948	      0.75415177	      0.96262743	     -0.27424431	     16.72084418	    -14.77816005	      8.16645034	    -62.29427363	      6.54831518	     15.81115637	    -34.00347989	     23.44581183	     -6.41474941	     -1.00613022	     -3.45648653	    -12.93963986	     14.43288335	    -16.04536120	      0.00000000	      0.00000000	      0.00000000
      0.02000000	     50.28419644	      2.39362164	     -1.77904715	      0.75393429	      0.96258606	     -0.27418335	     16.56958795	    -14.64452220	      8.10074668	    -62.21477740	      6.39488120	     15.57311091	    -35.17121160	     23.41357461	     -6.52539093	     -0.96240146	     -3.48844524	    -13.03724427	     14.40151367	    -16.11713664	      0.00000000	      0.00000000	      0.00000000
      0.03000000	     50.31565008	      2.34505860	     -1.77363821	      0.75386296	      0.96260135	     -0.27421710	     16.50460531	    -14.59805272	      8.07079503	    -62.24950023	      6.49093948	     15.55103206	    -35.02339041	     23.39175676	     -6.57429792	     -0.95326432	     -3.50440065	    -13.07752264	     14.38600687	    -16.13890971	      0.00000000	      0.00000000	      0.00000000
      0.04000000	     50.32742671	      2.34680864	     -1.78608223	      0.75388254	      0.96264513	     -0.27427689	     16.50386705	    -14.60725650	      8.06661449	    -62.35498400	      6.73411460	     15.67839742	    -33.98453229	     23.37580784	     -6.58011258	     -0.96861451	     -3.51038920	    -13.07829584	     14.38149593	    -16.12409081	      0.00000000	      0.00000000	      0.00000000
      0.05000000	     50.33027370	      2.37492241	     -1.80219049	      0.75391982	      0.96267879	     -0.27430166	     16.53768292	    -14.63993575	      8.07674887	    -62.48318080	      7.01018407	     15.87734846	    -32.55347459	     23.36339122	     -6.56416153	     -0.99620798	     -3.51200152	    -13.05941162	     14.38288191	    -16.08807467	      0.00000000	      0.00000000	      0.00000000
      0.06000000	     50.32956556	      2.40807374	     -1.81437947	      0.75393489	      0.96268492	     -0.27428197	     16.57637749	    -14.67255148	      8.09118650	    -62.59321473	      7.22532153	     16.07657411	    -31.18743384	     23.35493672	     -6.54473431	     -1.02470629	     -3.51255203	    -13.03760302	     14.38607814	    -16.04478434	      0.00000000	      0.00000000	      0.00000000
      0.07000000	     50.32733424	      2.43171028	     -1.82119955	      0.75393912	      0.96267423	     -0.27425391	     16.59870985	    -14.69269070	      8.10284707	    -62.65721246	      7.32489078	     16.22246409	    -30.22789453	     23.35148949	     -6.53370742	     -1.04591727	     -3.51316000	    -13.02387039	     14.38839435	    -16.00483442	      0.00000000	      0.00000000	      0.00000000
      0.08000000	     50.32509684	      2.43960278	     -1.82384828	      0.75395114	      0.96265771	     -0.27424274	     16.59671755	    -14.69696353	      8.10787908	    -62.66241778	      7.29814117	     16.28445691	    -29.86480462	     23.35228880	     -6.53581158	     -1.05590966	     -3.51389577	    -13.02300877	     14.38837722	    -15.97495908	      0.00000000	      0.00000000	      0.00000000
      0.09000000	     50.32502859	      2.43265577	     -1.82322298	      0.75395777	      0.96263646	     -0.27423766	     16.57458752	    -14.68765662	      8.10547863	    -62.61069488	      7.17047338	     16.25564998	    -30.13363238	     23.35410731	     -6.54987978	     -1.05490780	     -3.51484795	    -13.03460050	     14.38544864	    -15.95831026	      0.00000000	      0.00000000	      0.00000000
